<?xml version="1.0" encoding="UTF-8"?>
<svg width="72px" height="72px" viewBox="0 0 72 72" version="1.1" xmlns="http://www.w3.org/2000/svg" xmlns:xlink="http://www.w3.org/1999/xlink">
    <!-- Generator: Sketch 52.4 (67378) - http://www.bohemiancoding.com/sketch -->
    <title>Bitmap</title>
    <desc>Created with Sketch.</desc>
    <defs>
        <rect id="path-1" x="0" y="0" width="72" height="72" rx="36"></rect>
    </defs>
    <g id="Page-1" stroke="none" stroke-width="1" fill="none" fill-rule="evenodd">
        <g id="首页" transform="translate(-288.000000, -118.000000)">
            <g id="Bitmap" transform="translate(288.000000, 118.000000)">
                <mask id="mask-2" fill="white">
                    <use xlink:href="#path-1"></use>
                </mask>
                <use id="Mask" fill="#EAF2FF" xlink:href="#path-1"></use>
                <g id="医院" mask="url(#mask-2)" fill="#2B77EF" fill-rule="nonzero">
                    <g transform="translate(15.000000, 14.000000)" id="形状">
                        <path d="M0.4,13.7713807 L5.99784043,13.7713807 L5.99784043,44.1950811 L0.4,44.1950811 L0.4,13.7713807 Z M35.5660468,28.1937395 L41.4,28.1937395 L41.4,44.2 L35.5660468,44.2 L35.5660468,28.1937395 Z M6.81931614,0.2 L34.9265747,0.2 L34.9265747,2.7430967 L6.81931614,2.7430967 L6.81931614,0.2 Z M8.34913017,4.10072666 L8.34913017,44.1950811 L33.4016797,44.1950811 L33.4016797,4.10072666 L8.34913017,4.10072666 Z M15.4718656,10.4904416 L19.6579484,10.4904416 L19.6579484,6.1371716 L22.7716857,6.1371716 L22.7716857,10.4904416 L26.8446311,10.4904416 L26.8446311,13.4319732 L22.7716857,13.4319732 L22.7716857,17.6179989 L19.6628674,17.6179989 L19.6628674,13.4319732 L15.4767846,13.4319732 L15.4767846,10.4904416 L15.4718656,10.4904416 Z M15.9244151,36.9740637 L11.7678464,36.9740637 L11.7678464,34.2194522 L15.9244151,34.2194522 L15.9244151,36.9740637 Z M15.9244151,32.2666294 L11.7678464,32.2666294 L11.7678464,29.5120179 L15.9244151,29.5120179 L15.9244151,32.2666294 Z M15.9244151,27.5542761 L11.7678464,27.5542761 L11.7678464,24.7996646 L15.9244151,24.7996646 L15.9244151,27.5542761 Z M15.9244151,23.019005 L11.7678464,23.019005 L11.7678464,20.2643935 L15.9244151,20.2643935 L15.9244151,23.019005 Z M23.2340732,36.9740637 L19.0775045,36.9740637 L19.0775045,34.2194522 L23.2340732,34.2194522 L23.2340732,36.9740637 Z M23.2340732,32.2666294 L19.0775045,32.2666294 L19.0775045,29.5120179 L23.2340732,29.5120179 L23.2340732,32.2666294 Z M23.2340732,27.5542761 L19.0775045,27.5542761 L19.0775045,24.7996646 L23.2340732,24.7996646 L23.2340732,27.5542761 Z M23.2340732,23.019005 L19.0775045,23.019005 L19.0775045,20.2643935 L23.2340732,20.2643935 L23.2340732,23.019005 Z M30.4059988,36.9740637 L26.2494301,36.9740637 L26.2494301,34.2194522 L30.4059988,34.2194522 L30.4059988,36.9740637 Z M30.4059988,32.2666294 L26.2494301,32.2666294 L26.2494301,29.5120179 L30.4059988,29.5120179 L30.4059988,32.2666294 Z M30.4059988,27.5542761 L26.2494301,27.5542761 L26.2494301,24.7996646 L30.4059988,24.7996646 L30.4059988,27.5542761 Z M30.4059988,23.019005 L26.2494301,23.019005 L26.2494301,20.2643935 L30.4059988,20.2643935 L30.4059988,23.019005 Z"></path>
                    </g>
                </g>
            </g>
        </g>
    </g>
</svg>