<?xml version="1.0" encoding="UTF-8"?>
<svg width="22px" height="22px" viewBox="0 0 22 22" version="1.1" xmlns="http://www.w3.org/2000/svg" xmlns:xlink="http://www.w3.org/1999/xlink">
    <!-- Generator: Sketch 52.4 (67378) - http://www.bohemiancoding.com/sketch -->
    <title>医生 copy 4</title>
    <desc>Created with Sketch.</desc>
    <g id="Page-1" stroke="none" stroke-width="1" fill="none" fill-rule="evenodd">
        <g id="首页" transform="translate(-1256.000000, -609.000000)" fill="#2B77EF" fill-rule="nonzero">
            <g id="医生-copy-4" transform="translate(1256.000000, 609.000000)">
                <path d="M11.0312813,0 C12.5922746,0 14.0068549,0.634120536 15.0293884,1.65768527 C16.053125,2.68245312 16.6859933,4.09784375 16.6859933,5.66099777 C16.6859933,7.2235625 16.0531004,8.63895312 15.0293884,9.66310714 C14.0068549,10.6872612 12.5922746,11.3213817 11.0312813,11.3213817 C9.46969866,11.3213817 8.05570759,10.6872612 7.03317411,9.66310714 C6.00946205,8.63895312 5.3765692,7.2235625 5.3765692,5.66099777 C5.3765692,4.09784375 6.00946205,2.68245312 7.03317411,1.65768527 C8.05570759,0.634120536 9.46967411,0 11.0312813,0 M15.5369598,12.1633973 L15.5369598,14.6298772 C16.3080647,14.7884442 16.8019598,15.1801964 17.0896049,15.5282924 C17.8683951,16.4714442 17.88875,17.769346 17.8491451,18.3727009 C17.9641049,18.5097344 18.0487902,18.6743906 18.0878549,18.8567009 C18.1027098,18.9257701 18.1120647,18.9964844 18.1120647,19.0705379 C18.1120647,19.6606339 17.6517098,20.1396741 17.0841049,20.1396741 C16.7673147,20.1396741 16.4873549,19.9871719 16.2981451,19.7512366 C16.1485402,19.5661518 16.0561451,19.3313214 16.0561451,19.0705379 C16.0561451,18.7290714 16.2200402,18.4384554 16.4598549,18.2428616 C16.4840647,17.7754353 16.4345647,16.9576786 16.0292098,16.4703638 C15.7663147,16.1543103 15.3730647,16.0007277 14.82525,16.0007277 C14.2026451,16.0007277 13.7714598,16.1659241 13.508,16.502971 C13.1175,17.0013594 13.1345402,17.8367701 13.1857098,18.2180134 C13.4442098,18.4130424 13.6240647,18.7130871 13.6240647,19.0705625 C13.6240647,19.6606585 13.1648147,20.1396987 12.5966696,20.1396987 C12.0290647,20.1396987 11.5687098,19.6606585 11.5687098,19.0705625 C11.5687098,18.8186183 11.6649598,18.5976116 11.8052098,18.4141719 C11.7359196,17.8947902 11.6528549,16.5748147 12.4267098,15.5857969 C12.8414196,15.056471 13.4189196,14.7332478 14.1427098,14.6111429 L14.1427098,12.0545513 L7.7,12.0545513 C7.67745982,12.0545513 7.65489509,12.0578661 7.63235491,12.0584308 L7.63235491,16.620067 C8.19995982,16.9361205 8.59045982,17.5499598 8.59045982,18.2660402 C8.59045982,19.3009241 7.78470982,20.1396496 6.78975,20.1396496 C5.79479018,20.1396496 4.9885,19.3009241 4.9885,18.2660402 C4.9885,17.4985938 5.43345982,16.8421786 6.06704018,16.5521027 L6.06704018,12.2324665 C2.59985491,12.9850089 0,16.0807969 0,19.7899085 L0,22 L22,22 L22,19.7899085 C22,15.9421183 19.1999598,12.7590179 15.5369598,12.1633973" id="形状"></path>
            </g>
        </g>
    </g>
</svg>