<?xml version="1.0" encoding="UTF-8"?>
<svg width="79px" height="52px" viewBox="0 0 79 52" version="1.1" xmlns="http://www.w3.org/2000/svg" xmlns:xlink="http://www.w3.org/1999/xlink">
    <!-- Generator: Sketch 52.4 (67378) - http://www.bohemiancoding.com/sketch -->
    <title>vr</title>
    <desc>Created with Sketch.</desc>
    <g id="Page-1" stroke="none" stroke-width="1" fill="none" fill-rule="evenodd" fill-opacity="0.85">
        <g id="首页" transform="translate(-1195.000000, -335.000000)" fill="#000000" fill-rule="nonzero">
            <g id="vr" transform="translate(1195.000000, 335.000000)">
                <g id="分组">
                    <path d="M60.9553539,17.3519156 L68.7417237,28.8220738 C66.7216324,28.8220738 64.8810046,28.7169772 63.0602169,28.8558875 C61.6263128,28.9646397 60.8056507,28.4674868 60.0246689,27.2428822 C58.0262215,24.0963796 55.8492123,21.067768 53.766895,17.9751845 C53.4566667,17.5182425 53.1356164,17.2961687 52.5665639,17.3199297 C51.4924886,17.36471 50.4157078,17.3327241 49.2171804,17.3327241 L49.2171804,28.741652 L42.8917694,28.741652 C42.8701256,28.4811951 42.8295434,28.2125132 42.8295434,27.9429174 C42.8295434,22.667065 42.8439726,17.3921265 42.8088014,12.1162742 C42.8033904,11.2489982 43.0676256,11.0241828 43.9081279,11.03058 C48.8681735,11.069877 53.8282192,11.0497715 58.7882648,11.0497715 C59.0344635,11.0497715 59.2815639,11.0589104 59.5277626,11.0497715 C60.9093607,10.9739192 61.9374429,9.95950791 61.9221119,8.69195079 C61.9067808,7.42439367 60.8732877,6.36337434 59.515137,6.34509666 C57.0206849,6.31219684 54.5253311,6.33321617 52.0299772,6.33321617 L42.9025913,6.33321617 L42.9025913,0.164499121 C43.231758,0.147135325 43.559121,0.116063269 43.886484,0.116063269 L63.2928881,0.116063269 C66.5394635,0.116063269 68.2394064,1.83690685 68.2646575,5.13602812 C68.2826941,7.53954306 68.3007306,9.943058 68.2926142,12.3465729 C68.2817922,15.4857645 66.4312443,17.3382074 63.3325685,17.3519156 C62.6237329,17.3546573 61.9185046,17.3519156 60.9553539,17.3519156 Z M10.6965639,0.120632689 C12.9511301,0.120632689 15.0415639,0.0932161687 17.1301941,0.155360281 C17.3926256,0.163585237 17.748847,0.601335677 17.87871,0.917539543 C20.002809,6.09621863 22.1094757,11.2834517 24.19871,16.4791564 C24.5143493,17.2577856 24.7839954,18.0601757 25.1645662,18.8049912 C25.3386187,19.1458699 25.7327169,19.5973286 26.0167922,19.5900176 C26.3008676,19.5827065 26.7084932,19.1330756 26.8554909,18.7821441 C29.3343143,12.9412098 31.7869757,7.08927241 34.2134932,1.22643234 C34.5615982,0.381089631 34.9593037,0.0466080844 35.8854795,0.0886467487 C37.7531621,0.171810193 39.6271575,0.113321617 41.6571689,0.113321617 C41.4858219,0.543760984 41.386621,0.824323374 41.2639726,1.09757469 C37.6139832,9.48154657 33.9651933,17.8661582 30.3176027,26.2513181 C29.4527511,28.2472408 28.0513128,29.4179262 25.8481507,29.3841125 C23.6909817,29.3512127 22.3147945,28.1759578 21.4959361,26.2074517 C18.0088707,17.821652 14.5169985,9.43795431 11.0203196,1.05644991 C10.9121005,0.806045694 10.841758,0.5428471 10.6965639,0.120632689 Z" id="形状"></path>
                    <path d="M10.1798174,19.2052724 C8.91184932,20.0231986 7.62223744,20.808225 6.38673516,21.6727592 L6.38673538,21.6727591 C5.73328454,22.1400883 5.12889486,22.6741566 4.58308241,23.2665728 C2.34474908,25.6536378 2.33573081,28.6411246 4.57045684,31.0455534 C6.41829931,33.0332512 8.72697511,34.3419331 11.1537902,35.4586993 C15.2525915,37.3467837 19.6129226,38.2807731 24.0282651,38.9442529 C27.282055,39.4331809 30.5610961,39.7429875 33.8302171,40.1277327 C34.0105824,40.148752 34.1909477,40.1277327 34.4813358,40.1277327 L34.8420664,34.4150438 L44.682797,43.0969418 L34.6761304,51.982636 C34.6761304,50.7297011 34.5904568,49.6220737 34.6950687,48.5336378 C34.8700231,46.7058698 34.3343381,45.9053074 32.505434,45.6932863 C30.4573861,45.4565904 28.3940071,45.3524076 26.3513701,45.0818979 C19.4974888,44.1744111 12.8753769,42.449912 6.94767145,38.6947626 C5.24141575,37.6136378 3.66231757,36.2565201 2.23472625,34.8116694 C-0.348104802,32.1997889 -0.631278318,28.8641123 1.35273995,25.7605622 C3.45850479,22.4596132 6.60317374,20.5212652 10.1798176,19.2052722 L10.1798174,19.2052724 Z M69.5308219,19.4876626 C72.8432306,20.8 75.7155479,22.7410896 77.6941553,25.8391564 C79.6114384,28.8403515 79.3345776,31.8214411 76.9501484,34.4634798 C74.3727283,37.3193673 71.3452968,39.511775 67.8119406,40.9794728 C61.7633904,43.4917399 55.5038128,45.1202812 48.9556507,45.4410545 C47.1736416,45.5324429 47,44.3937348 47,42.8760807 C47,40.6231055 47.0252923,40.0545734 49.9864384,39.6899824 C55.5,39.0111254 60,38 64,36.6814682 C66.9681095,35.7030816 72.3688699,33.051529 74.5431735,30.8463269 C76.7174772,28.6411248 76.7400228,25.9040422 74.6577055,23.5791213 C73.8983676,22.7310369 72.9983447,22.0017575 72.1064384,21.2944112 C71.2857763,20.6382425 70.3911644,20.0844288 69.5308219,19.4876626 Z" id="形状"></path>
                </g>
            </g>
        </g>
    </g>
</svg>